<svg height="32" viewBox="0 0 32 32" width="32" xmlns="http://www.w3.org/2000/svg"><path d="m30 18v-2h-6v10h2v-4h3v-2h-3v-2z"/><path d="m19 26h-4v-10h4a3.0033 3.0033 0 0 1 3 3v4a3.0033 3.0033 0 0 1 -3 3zm-2-2h2a1.0011 1.0011 0 0 0 1-1v-4a1.0011 1.0011 0 0 0 -1-1h-2z"/><path d="m11 16h-5v10h2v-3h3a2.0027 2.0027 0 0 0 2-2v-3a2.0023 2.0023 0 0 0 -2-2zm-3 5v-3h3l.001 3z"/><path d="m22 14v-4a.9092.9092 0 0 0 -.3-.7l-7-7a.9087.9087 0 0 0 -.7-.3h-10a2.0059 2.0059 0 0 0 -2 2v24a2 2 0 0 0 2 2h16v-2h-16v-24h8v6a2.0059 2.0059 0 0 0 2 2h6v2zm-8-4v-5.6l5.6 5.6z"/><path d="m0 0h32v32h-32z" fill="none"/></svg>